<svg fill="none" height="24" viewBox="0 0 24 24" width="24" xmlns="http://www.w3.org/2000/svg"><path d="m8.7 19.1c1.17812.5951 2.4801.9034 3.8.9 1.5782-.0006 3.1251-.4406 4.4674-1.2707 1.3424-.8301 2.427-2.0176 3.1326-3.4293.5951-1.1781.9034-2.4801.9-3.8v-.5c-.115-2.08435-.9948-4.05305-2.4709-5.52914-1.4761-1.4761-3.4448-2.35587-5.5291-2.47086h-.5c-1.3199-.00344-2.62188.30493-3.8.9-1.41175.70557-2.59917 1.79025-3.42928 3.13255s-1.27011 2.88921-1.27072 4.46745c-.00344 1.3199.30493 2.6219.9 3.8l-1.9 5.7 2.85-.95" stroke="#343a3f" stroke-linecap="round" stroke-linejoin="round" stroke-width="2"/></svg>